<svg width="67" height="67" viewBox="0 0 67 67" fill="none" xmlns="http://www.w3.org/2000/svg">
<g clip-path="url(#clip0_525_411)">
<path d="M65.4724 15.209L57.5128 3.7118C56.7179 2.56758 55.6582 1.63248 54.4239 0.986186C53.1896 0.33989 51.8174 0.00155119 50.4242 0L16.5758 0C15.1826 0.00155119 13.8104 0.33989 12.5761 0.986186C11.3418 1.63248 10.2821 2.56758 9.4872 3.7118L1.5276 15.209C0.534958 16.6471 0.00227057 18.3526 0 20.1L0 58.3704C0 60.6591 0.909188 62.8541 2.52755 64.4725C4.14592 66.0908 6.34089 67 8.6296 67H58.3704C60.6591 67 62.8541 66.0908 64.4725 64.4725C66.0908 62.8541 67 60.6591 67 58.3704V20.1C66.9977 18.3526 66.465 16.6471 65.4724 15.209ZM50.4242 6.7C50.7354 6.69967 51.042 6.77514 51.3175 6.9199C51.593 7.06465 51.8291 7.27433 52.0054 7.5308L56.9902 14.74H36.8902V6.7H50.4242ZM14.9946 7.5308C15.1709 7.27433 15.407 7.06465 15.6825 6.9199C15.958 6.77514 16.2646 6.69967 16.5758 6.7H30.15V14.74H10.05L14.9946 7.5308ZM60.3 58.3704C60.3018 58.6243 60.2531 58.876 60.1567 59.1109C60.0604 59.3458 59.9183 59.5593 59.7388 59.7388C59.5593 59.9183 59.3458 60.0604 59.1109 60.1567C58.876 60.2531 58.6243 60.3018 58.3704 60.3H8.6296C8.3757 60.3018 8.12399 60.2531 7.88907 60.1567C7.65416 60.0604 7.44073 59.9183 7.2612 59.7388C7.08166 59.5593 6.93959 59.3458 6.84325 59.1109C6.74691 58.876 6.69822 58.6243 6.7 58.3704V23.115C6.7 22.6708 6.87647 22.2447 7.1906 21.9306C7.50472 21.6165 7.93076 21.44 8.375 21.44H58.625C59.0692 21.44 59.4953 21.6165 59.8094 21.9306C60.1235 22.2447 60.3 22.6708 60.3 23.115V58.3704Z" fill="white"/>
<path d="M43.5496 28.1396H23.4496C21.5995 28.1396 20.0996 29.6395 20.0996 31.4896C20.0996 33.3398 21.5995 34.8396 23.4496 34.8396H43.5496C45.3998 34.8396 46.8996 33.3398 46.8996 31.4896C46.8996 29.6395 45.3998 28.1396 43.5496 28.1396Z" fill="white"/>
</g>
<defs>
<clipPath id="clip0_525_411">
<rect width="67" height="67" fill="white"/>
</clipPath>
</defs>
</svg>
